<svg width="43" height="30" viewBox="0 0 43 30" fill="none" xmlns="http://www.w3.org/2000/svg">
<path fill-rule="evenodd" clip-rule="evenodd" d="M21.4583 24.2693C33.3094 24.2693 42.9166 18.8358 42.9166 12.1331C42.9166 5.43041 33.3094 -0.00317383 21.4583 -0.00317383C9.60721 -0.00317383 0 5.43041 0 12.1331C0 16.2363 3.60035 19.8639 9.11179 22.0605C9.14704 22.0745 9.17172 22.1074 9.17494 22.1452L9.83591 29.9115C9.84223 29.9858 9.92471 30.0273 9.98813 29.9881L19.3073 24.2271C19.3247 24.2164 19.345 24.2112 19.3654 24.2123C20.054 24.25 20.7522 24.2693 21.4583 24.2693Z" fill="white"/>
<circle cx="14.5159" cy="11.9882" r="1.89338" fill="#144654" fill-opacity="0.5"/>
<circle cx="20.8272" cy="11.9882" r="1.89338" fill="#144654"/>
<circle cx="27.1383" cy="11.9882" r="1.89338" fill="#144654" fill-opacity="0.5"/>
</svg>
