<svg width="244" height="92" viewBox="0 0 244 92" fill="none" xmlns="http://www.w3.org/2000/svg">
<g filter="url(#filter0_d_226_5)">
<path d="M7 20C7 8.9543 15.9543 0 27 0H222.917C233.962 0 242.917 8.95431 242.917 20V84H27C15.9543 84 7 75.0457 7 64V20Z" fill="#144654"/>
<path fill-rule="evenodd" clip-rule="evenodd" d="M44.4583 51.2694C56.3094 51.2694 65.9166 45.8358 65.9166 39.1331C65.9166 32.4304 56.3094 26.9968 44.4583 26.9968C32.6072 26.9968 23 32.4304 23 39.1331C23 43.2363 26.6003 46.8639 32.1118 49.0605C32.147 49.0745 32.1717 49.1074 32.1749 49.1452L32.8359 56.9115C32.8422 56.9858 32.9247 57.0273 32.9881 56.9881L42.3073 51.2272C42.3247 51.2164 42.345 51.2113 42.3654 51.2124C43.054 51.2501 43.7522 51.2694 44.4583 51.2694Z" fill="white"/>
<path d="M49 37.4968C42.5 37.4968 42.5 37.4968 42.5 30.9968C42.5 37.4968 42.5 37.4968 36 37.4968C42.5 37.4968 42.5 37.4968 42.5 43.9968C42.5 37.4968 42.5 37.4968 49 37.4968Z" stroke="#144654"/>
<path fill-rule="evenodd" clip-rule="evenodd" d="M47 44.2276V43.7661C47.7556 43.7661 48.3028 43.7657 48.7089 43.7206C49.1167 43.6753 49.3315 43.589 49.4618 43.4587C49.5921 43.3284 49.6785 43.1135 49.7238 42.7057C49.7689 42.2997 49.7692 41.7525 49.7692 40.9969L50.2308 40.9968C50.2308 41.7525 50.2311 42.2996 50.2762 42.7057C50.3215 43.1135 50.4079 43.3284 50.5382 43.4587C50.6685 43.589 50.8833 43.6753 51.2911 43.7206C51.6972 43.7657 52.2444 43.7661 53 43.7661V44.2276C52.2444 44.2276 51.6972 44.228 51.2911 44.2731C50.8833 44.3184 50.6685 44.4047 50.5382 44.535C50.4079 44.6653 50.3215 44.8802 50.2762 45.288C50.2311 45.694 50.2308 46.2412 50.2308 46.9968H49.7692C49.7692 46.2412 49.7689 45.694 49.7238 45.288C49.6785 44.8802 49.5921 44.6653 49.4618 44.535C49.3315 44.4047 49.1167 44.3184 48.7089 44.2731C48.3028 44.228 47.7556 44.2276 47 44.2276ZM50 44.5105C50.055 44.3971 50.1242 44.2963 50.2118 44.2087C50.2994 44.121 50.4003 44.0518 50.5136 43.9968C50.4003 43.9419 50.2994 43.8726 50.2118 43.785C50.1242 43.6974 50.055 43.5966 50 43.4832C49.945 43.5966 49.8758 43.6974 49.7882 43.785C49.7006 43.8726 49.5997 43.9419 49.4864 43.9969C49.5997 44.0518 49.7006 44.1211 49.7882 44.2087C49.8758 44.2963 49.945 44.3971 50 44.5105Z" fill="#89A2A9"/>
<path d="M81.7212 31.6514C81.7212 31.4229 81.686 31.2178 81.6157 31.0361C81.5513 30.8486 81.4282 30.6787 81.2466 30.5264C81.0649 30.3682 80.8101 30.2129 80.4819 30.0605C80.1538 29.9082 79.729 29.75 79.2075 29.5859C78.6274 29.3984 78.0767 29.1875 77.5552 28.9531C77.0396 28.7188 76.5825 28.4463 76.1841 28.1357C75.7915 27.8193 75.481 27.4531 75.2524 27.0371C75.0298 26.6211 74.9185 26.1377 74.9185 25.5869C74.9185 25.0537 75.0356 24.5703 75.27 24.1367C75.5044 23.6973 75.8325 23.3223 76.2544 23.0117C76.6763 22.6953 77.1743 22.4521 77.7485 22.2822C78.3286 22.1123 78.9644 22.0273 79.6558 22.0273C80.5991 22.0273 81.4224 22.1973 82.1255 22.5371C82.8286 22.877 83.3735 23.3428 83.7603 23.9346C84.1528 24.5264 84.3491 25.2031 84.3491 25.9648H81.73C81.73 25.5898 81.6509 25.2617 81.4927 24.9805C81.3403 24.6934 81.106 24.4678 80.7896 24.3037C80.479 24.1396 80.0864 24.0576 79.6118 24.0576C79.1548 24.0576 78.7739 24.1279 78.4692 24.2686C78.1646 24.4033 77.936 24.5879 77.7837 24.8223C77.6313 25.0508 77.5552 25.3086 77.5552 25.5957C77.5552 25.8125 77.6079 26.0088 77.7134 26.1846C77.8247 26.3604 77.9888 26.5244 78.2056 26.6768C78.4224 26.8291 78.689 26.9727 79.0054 27.1074C79.3218 27.2422 79.688 27.374 80.104 27.5029C80.8013 27.7139 81.4136 27.9512 81.9409 28.2148C82.4741 28.4785 82.9194 28.7744 83.2769 29.1025C83.6343 29.4307 83.9038 29.8027 84.0854 30.2188C84.2671 30.6348 84.3579 31.1064 84.3579 31.6338C84.3579 32.1904 84.2495 32.6885 84.0327 33.1279C83.8159 33.5674 83.5024 33.9395 83.0923 34.2441C82.6821 34.5488 82.1929 34.7803 81.6245 34.9385C81.0562 35.0967 80.4204 35.1758 79.7173 35.1758C79.0845 35.1758 78.4604 35.0938 77.8452 34.9297C77.23 34.7598 76.6704 34.5049 76.1665 34.165C75.6685 33.8252 75.27 33.3916 74.9712 32.8643C74.6724 32.3369 74.5229 31.7129 74.5229 30.9922H77.1685C77.1685 31.3906 77.23 31.7275 77.353 32.0029C77.4761 32.2783 77.6489 32.501 77.8716 32.6709C78.1001 32.8408 78.3696 32.9639 78.6802 33.04C78.9966 33.1162 79.3423 33.1543 79.7173 33.1543C80.1743 33.1543 80.5493 33.0898 80.8423 32.9609C81.1411 32.832 81.3608 32.6533 81.5015 32.4248C81.6479 32.1963 81.7212 31.9385 81.7212 31.6514ZM88.5239 27.3184V38.6562H85.9927V25.4902H88.3394L88.5239 27.3184ZM94.5444 30.1396V30.3242C94.5444 31.0156 94.4624 31.6572 94.2983 32.249C94.1401 32.8408 93.9058 33.3564 93.5952 33.7959C93.2847 34.2295 92.8979 34.5693 92.4351 34.8154C91.978 35.0557 91.4507 35.1758 90.853 35.1758C90.2729 35.1758 89.769 35.0586 89.3413 34.8242C88.9136 34.5898 88.5532 34.2617 88.2603 33.8398C87.9731 33.4121 87.7417 32.917 87.5659 32.3545C87.3901 31.792 87.2554 31.1885 87.1616 30.5439V30.0605C87.2554 29.3691 87.3901 28.7363 87.5659 28.1621C87.7417 27.582 87.9731 27.0811 88.2603 26.6592C88.5532 26.2314 88.9106 25.9004 89.3325 25.666C89.7603 25.4316 90.2612 25.3145 90.8354 25.3145C91.439 25.3145 91.9692 25.4287 92.4263 25.6572C92.8892 25.8857 93.2759 26.2139 93.5864 26.6416C93.9028 27.0693 94.1401 27.5791 94.2983 28.1709C94.4624 28.7627 94.5444 29.4189 94.5444 30.1396ZM92.0044 30.3242V30.1396C92.0044 29.7354 91.9692 29.3633 91.8989 29.0234C91.8345 28.6777 91.729 28.376 91.5825 28.1182C91.4419 27.8604 91.2544 27.6611 91.02 27.5205C90.7915 27.374 90.5132 27.3008 90.1851 27.3008C89.8394 27.3008 89.5435 27.3564 89.2974 27.4678C89.0571 27.5791 88.8608 27.7402 88.7085 27.9512C88.5562 28.1621 88.4419 28.4141 88.3657 28.707C88.2896 29 88.2427 29.3311 88.2251 29.7002V30.9219C88.2544 31.3555 88.3364 31.7451 88.4712 32.0908C88.606 32.4307 88.814 32.7002 89.0952 32.8994C89.3765 33.0986 89.7456 33.1982 90.2026 33.1982C90.5366 33.1982 90.8179 33.125 91.0464 32.9785C91.2749 32.8262 91.4595 32.6182 91.6001 32.3545C91.7466 32.0908 91.8491 31.7861 91.9077 31.4404C91.9722 31.0947 92.0044 30.7227 92.0044 30.3242ZM103.852 24.3125L98.0249 36.248H96.6274L102.455 24.3125H103.852ZM95.7134 30.3418V30.1572C95.7134 29.46 95.813 28.8184 96.0122 28.2324C96.2114 27.6406 96.5015 27.1279 96.8823 26.6943C97.2632 26.2607 97.7319 25.9238 98.2886 25.6836C98.8452 25.4375 99.4839 25.3145 100.205 25.3145C100.925 25.3145 101.567 25.4375 102.129 25.6836C102.692 25.9238 103.164 26.2607 103.544 26.6943C103.925 27.1279 104.215 27.6406 104.415 28.2324C104.614 28.8184 104.713 29.46 104.713 30.1572V30.3418C104.713 31.0332 104.614 31.6748 104.415 32.2666C104.215 32.8525 103.925 33.3652 103.544 33.8047C103.164 34.2383 102.695 34.5752 102.138 34.8154C101.582 35.0557 100.943 35.1758 100.222 35.1758C99.5015 35.1758 98.8599 35.0557 98.2974 34.8154C97.7407 34.5752 97.269 34.2383 96.8823 33.8047C96.5015 33.3652 96.2114 32.8525 96.0122 32.2666C95.813 31.6748 95.7134 31.0332 95.7134 30.3418ZM98.2446 30.1572V30.3418C98.2446 30.7402 98.2798 31.1123 98.3501 31.458C98.4204 31.8037 98.5317 32.1084 98.6841 32.3721C98.8423 32.6299 99.0474 32.832 99.2993 32.9785C99.5513 33.125 99.8589 33.1982 100.222 33.1982C100.574 33.1982 100.875 33.125 101.127 32.9785C101.379 32.832 101.582 32.6299 101.734 32.3721C101.886 32.1084 101.998 31.8037 102.068 31.458C102.144 31.1123 102.182 30.7402 102.182 30.3418V30.1572C102.182 29.7705 102.144 29.4072 102.068 29.0674C101.998 28.7217 101.883 28.417 101.725 28.1533C101.573 27.8838 101.371 27.6729 101.119 27.5205C100.867 27.3682 100.562 27.292 100.205 27.292C99.8472 27.292 99.5425 27.3682 99.2905 27.5205C99.0444 27.6729 98.8423 27.8838 98.6841 28.1533C98.5317 28.417 98.4204 28.7217 98.3501 29.0674C98.2798 29.4072 98.2446 29.7705 98.2446 30.1572ZM108.809 27.5645V35H106.278V25.4902H108.66L108.809 27.5645ZM111.674 25.4287L111.63 27.7754C111.507 27.7578 111.358 27.7432 111.182 27.7314C111.012 27.7139 110.857 27.7051 110.716 27.7051C110.359 27.7051 110.048 27.752 109.785 27.8457C109.527 27.9336 109.31 28.0654 109.134 28.2412C108.964 28.417 108.835 28.6309 108.748 28.8828C108.666 29.1348 108.619 29.4219 108.607 29.7441L108.097 29.5859C108.097 28.9707 108.159 28.4053 108.282 27.8896C108.405 27.3682 108.583 26.9141 108.818 26.5273C109.058 26.1406 109.351 25.8418 109.697 25.6309C110.042 25.4199 110.438 25.3145 110.883 25.3145C111.024 25.3145 111.167 25.3262 111.314 25.3496C111.46 25.3672 111.581 25.3936 111.674 25.4287ZM118.011 32.3721C118.011 32.1904 117.958 32.0264 117.853 31.8799C117.748 31.7334 117.551 31.5986 117.264 31.4756C116.983 31.3467 116.576 31.2295 116.042 31.124C115.562 31.0186 115.114 30.8867 114.698 30.7285C114.288 30.5645 113.93 30.3682 113.625 30.1396C113.327 29.9111 113.092 29.6416 112.922 29.3311C112.752 29.0146 112.667 28.6543 112.667 28.25C112.667 27.8516 112.752 27.4766 112.922 27.125C113.098 26.7734 113.347 26.4629 113.669 26.1934C113.998 25.918 114.396 25.7041 114.865 25.5518C115.339 25.3936 115.873 25.3145 116.464 25.3145C117.291 25.3145 118 25.4463 118.591 25.71C119.189 25.9736 119.646 26.3369 119.962 26.7998C120.285 27.2568 120.446 27.7783 120.446 28.3643H117.915C117.915 28.1182 117.862 27.8984 117.756 27.7051C117.657 27.5059 117.499 27.3506 117.282 27.2393C117.071 27.1221 116.795 27.0635 116.456 27.0635C116.174 27.0635 115.931 27.1133 115.726 27.2129C115.521 27.3066 115.363 27.4355 115.251 27.5996C115.146 27.7578 115.093 27.9336 115.093 28.127C115.093 28.2734 115.123 28.4053 115.181 28.5225C115.246 28.6338 115.348 28.7363 115.489 28.8301C115.629 28.9238 115.811 29.0117 116.034 29.0938C116.262 29.1699 116.543 29.2402 116.877 29.3047C117.563 29.4453 118.175 29.6299 118.714 29.8584C119.253 30.0811 119.681 30.3857 119.998 30.7725C120.314 31.1533 120.472 31.6543 120.472 32.2754C120.472 32.6973 120.378 33.084 120.191 33.4355C120.003 33.7871 119.734 34.0947 119.382 34.3584C119.031 34.6162 118.609 34.8184 118.117 34.9648C117.63 35.1055 117.083 35.1758 116.473 35.1758C115.588 35.1758 114.838 35.0176 114.223 34.7012C113.614 34.3848 113.151 33.9834 112.834 33.4971C112.524 33.0049 112.369 32.501 112.369 31.9854H114.768C114.78 32.3311 114.868 32.6094 115.032 32.8203C115.202 33.0312 115.416 33.1836 115.673 33.2773C115.937 33.3711 116.221 33.418 116.526 33.418C116.854 33.418 117.126 33.374 117.343 33.2861C117.56 33.1924 117.724 33.0693 117.835 32.917C117.953 32.7588 118.011 32.5771 118.011 32.3721ZM124.647 27.459V35H122.107V25.4902H124.489L124.647 27.459ZM124.295 29.9111H123.592C123.592 29.249 123.671 28.6396 123.83 28.083C123.994 27.5205 124.231 27.0342 124.542 26.624C124.858 26.208 125.248 25.8857 125.71 25.6572C126.173 25.4287 126.709 25.3145 127.319 25.3145C127.741 25.3145 128.127 25.3789 128.479 25.5078C128.831 25.6309 129.132 25.8271 129.384 26.0967C129.642 26.3604 129.841 26.7061 129.982 27.1338C130.123 27.5557 130.193 28.0625 130.193 28.6543V35H127.662V28.9355C127.662 28.502 127.603 28.168 127.486 27.9336C127.369 27.6992 127.202 27.5352 126.985 27.4414C126.774 27.3477 126.519 27.3008 126.22 27.3008C125.892 27.3008 125.605 27.3682 125.359 27.5029C125.119 27.6377 124.919 27.8252 124.761 28.0654C124.603 28.2998 124.486 28.5752 124.41 28.8916C124.333 29.208 124.295 29.5479 124.295 29.9111ZM129.956 29.6211L129.05 29.7354C129.05 29.1143 129.126 28.5371 129.279 28.0039C129.437 27.4707 129.668 27.002 129.973 26.5977C130.284 26.1934 130.667 25.8799 131.125 25.6572C131.582 25.4287 132.109 25.3145 132.707 25.3145C133.164 25.3145 133.58 25.3818 133.955 25.5166C134.33 25.6455 134.649 25.8535 134.913 26.1406C135.182 26.4219 135.387 26.791 135.528 27.248C135.674 27.7051 135.748 28.2646 135.748 28.9268V35H133.208V28.9268C133.208 28.4873 133.149 28.1533 133.032 27.9248C132.92 27.6904 132.756 27.5293 132.54 27.4414C132.329 27.3477 132.077 27.3008 131.784 27.3008C131.479 27.3008 131.212 27.3623 130.984 27.4854C130.755 27.6025 130.565 27.7666 130.413 27.9775C130.26 28.1885 130.146 28.4346 130.07 28.7158C129.994 28.9912 129.956 29.293 129.956 29.6211ZM142.84 32.8555V28.6191C142.84 28.3145 142.791 28.0537 142.691 27.8369C142.591 27.6143 142.436 27.4414 142.225 27.3184C142.02 27.1953 141.753 27.1338 141.425 27.1338C141.144 27.1338 140.901 27.1836 140.696 27.2832C140.491 27.377 140.333 27.5146 140.221 27.6963C140.11 27.8721 140.054 28.0801 140.054 28.3203H137.523C137.523 27.916 137.617 27.5322 137.804 27.1689C137.992 26.8057 138.264 26.4863 138.622 26.2109C138.979 25.9297 139.404 25.71 139.896 25.5518C140.394 25.3936 140.951 25.3145 141.566 25.3145C142.304 25.3145 142.96 25.4375 143.535 25.6836C144.109 25.9297 144.56 26.2988 144.888 26.791C145.222 27.2832 145.389 27.8984 145.389 28.6367V32.7061C145.389 33.2275 145.421 33.6553 145.486 33.9893C145.55 34.3174 145.644 34.6045 145.767 34.8506V35H143.209C143.086 34.7422 142.993 34.4199 142.928 34.0332C142.87 33.6406 142.84 33.248 142.84 32.8555ZM143.174 29.208L143.192 30.6406H141.777C141.443 30.6406 141.153 30.6787 140.907 30.7549C140.661 30.8311 140.458 30.9395 140.3 31.0801C140.142 31.2148 140.025 31.373 139.949 31.5547C139.878 31.7363 139.843 31.9355 139.843 32.1523C139.843 32.3691 139.893 32.5654 139.993 32.7412C140.092 32.9111 140.236 33.0459 140.423 33.1455C140.611 33.2393 140.831 33.2861 141.083 33.2861C141.463 33.2861 141.794 33.21 142.076 33.0576C142.357 32.9053 142.574 32.7178 142.726 32.4951C142.884 32.2725 142.966 32.0615 142.972 31.8623L143.64 32.9346C143.546 33.1748 143.417 33.4238 143.253 33.6816C143.095 33.9395 142.893 34.1826 142.647 34.4111C142.401 34.6338 142.105 34.8184 141.759 34.9648C141.414 35.1055 141.003 35.1758 140.529 35.1758C139.925 35.1758 139.377 35.0557 138.885 34.8154C138.399 34.5693 138.012 34.2324 137.725 33.8047C137.444 33.3711 137.303 32.8789 137.303 32.3281C137.303 31.8301 137.397 31.3877 137.584 31.001C137.772 30.6143 138.047 30.2891 138.411 30.0254C138.78 29.7559 139.24 29.5537 139.791 29.4189C140.341 29.2783 140.98 29.208 141.707 29.208H143.174ZM139.632 22.5283C139.632 22.2002 139.714 21.9014 139.878 21.6318C140.048 21.3564 140.28 21.1367 140.573 20.9727C140.866 20.8086 141.2 20.7266 141.575 20.7266C142.131 20.7266 142.594 20.9053 142.963 21.2627C143.338 21.6143 143.526 22.0361 143.526 22.5283C143.526 22.8564 143.441 23.1553 143.271 23.4248C143.101 23.6885 142.87 23.8994 142.577 24.0576C142.284 24.2158 141.95 24.2949 141.575 24.2949C141.018 24.2949 140.555 24.125 140.186 23.7852C139.817 23.4395 139.632 23.0205 139.632 22.5283ZM140.634 22.5283C140.634 22.7803 140.719 23 140.889 23.1875C141.059 23.375 141.288 23.4688 141.575 23.4688C141.862 23.4688 142.09 23.3779 142.26 23.1963C142.436 23.0088 142.524 22.7861 142.524 22.5283C142.524 22.2646 142.436 22.0391 142.26 21.8516C142.09 21.6582 141.862 21.5615 141.575 21.5615C141.288 21.5615 141.059 21.6582 140.889 21.8516C140.719 22.0391 140.634 22.2646 140.634 22.5283ZM150.012 21.5V35H147.472V21.5H150.012ZM156.419 31.0889H154.178C154.184 30.5615 154.225 30.1074 154.301 29.7266C154.383 29.3398 154.521 28.9912 154.714 28.6807C154.914 28.3701 155.177 28.0625 155.505 27.7578C155.781 27.5117 156.021 27.2773 156.226 27.0547C156.431 26.832 156.592 26.6035 156.709 26.3691C156.827 26.1289 156.885 25.8623 156.885 25.5693C156.885 25.2295 156.833 24.9482 156.727 24.7256C156.627 24.4971 156.475 24.3242 156.27 24.207C156.071 24.0898 155.819 24.0312 155.514 24.0312C155.262 24.0312 155.028 24.0869 154.811 24.1982C154.594 24.3037 154.416 24.4678 154.275 24.6904C154.14 24.9131 154.07 25.2061 154.064 25.5693H151.515C151.533 24.7666 151.717 24.1045 152.069 23.583C152.426 23.0557 152.904 22.666 153.501 22.4141C154.099 22.1562 154.77 22.0273 155.514 22.0273C156.334 22.0273 157.038 22.1621 157.624 22.4316C158.209 22.6953 158.658 23.085 158.968 23.6006C159.279 24.1104 159.434 24.7314 159.434 25.4639C159.434 25.9736 159.334 26.4277 159.135 26.8262C158.936 27.2188 158.675 27.585 158.353 27.9248C158.031 28.2646 157.676 28.6162 157.29 28.9795C156.956 29.2783 156.727 29.5918 156.604 29.9199C156.487 30.248 156.425 30.6377 156.419 31.0889ZM153.915 33.8047C153.915 33.4297 154.043 33.1191 154.301 32.873C154.559 32.6211 154.905 32.4951 155.338 32.4951C155.766 32.4951 156.109 32.6211 156.367 32.873C156.63 33.1191 156.762 33.4297 156.762 33.8047C156.762 34.168 156.63 34.4756 156.367 34.7275C156.109 34.9795 155.766 35.1055 155.338 35.1055C154.905 35.1055 154.559 34.9795 154.301 34.7275C154.043 34.4756 153.915 34.168 153.915 33.8047ZM82.2222 58.7656C82.2222 58.4668 82.1753 58.2031 82.0815 57.9746C81.9937 57.7402 81.8354 57.5293 81.6069 57.3418C81.3843 57.1543 81.0737 56.9756 80.6753 56.8057C80.2827 56.6357 79.7847 56.4629 79.1812 56.2871C78.5483 56.0996 77.9771 55.8916 77.4673 55.6631C76.9575 55.4287 76.521 55.1621 76.1577 54.8633C75.7944 54.5645 75.5161 54.2217 75.3228 53.835C75.1294 53.4482 75.0327 53.0059 75.0327 52.5078C75.0327 52.0098 75.1353 51.5498 75.3403 51.1279C75.5454 50.7061 75.8384 50.3398 76.2192 50.0293C76.606 49.7129 77.0659 49.4668 77.5991 49.291C78.1323 49.1152 78.7271 49.0273 79.3833 49.0273C80.3442 49.0273 81.1587 49.2119 81.8267 49.5811C82.5005 49.9443 83.0132 50.4219 83.3647 51.0137C83.7163 51.5996 83.8921 52.2266 83.8921 52.8945H82.2046C82.2046 52.4141 82.1021 51.9893 81.897 51.6201C81.6919 51.2451 81.3813 50.9521 80.9653 50.7412C80.5493 50.5244 80.022 50.416 79.3833 50.416C78.7798 50.416 78.2817 50.5068 77.8892 50.6885C77.4966 50.8701 77.2036 51.1162 77.0103 51.4268C76.8228 51.7373 76.729 52.0918 76.729 52.4902C76.729 52.7598 76.7847 53.0059 76.896 53.2285C77.0132 53.4453 77.1919 53.6475 77.4321 53.835C77.6782 54.0225 77.9888 54.1953 78.3638 54.3535C78.7446 54.5117 79.1987 54.6641 79.7261 54.8105C80.4526 55.0156 81.0796 55.2441 81.6069 55.4961C82.1343 55.748 82.5679 56.0322 82.9077 56.3486C83.2534 56.6592 83.5083 57.0137 83.6724 57.4121C83.8423 57.8047 83.9272 58.25 83.9272 58.748C83.9272 59.2695 83.8218 59.7412 83.6108 60.1631C83.3999 60.585 83.0981 60.9453 82.7056 61.2441C82.313 61.543 81.8413 61.7744 81.2905 61.9385C80.7456 62.0967 80.1362 62.1758 79.4624 62.1758C78.8706 62.1758 78.2876 62.0938 77.7134 61.9297C77.145 61.7656 76.6265 61.5195 76.1577 61.1914C75.6948 60.8633 75.3228 60.459 75.0415 59.9785C74.7661 59.4922 74.6284 58.9297 74.6284 58.291H76.3159C76.3159 58.7305 76.4009 59.1084 76.5708 59.4248C76.7407 59.7354 76.9722 59.9932 77.2651 60.1982C77.564 60.4033 77.9009 60.5557 78.2759 60.6553C78.6567 60.749 79.0522 60.7959 79.4624 60.7959C80.0542 60.7959 80.5552 60.7139 80.9653 60.5498C81.3755 60.3857 81.686 60.1514 81.897 59.8467C82.1138 59.542 82.2222 59.1816 82.2222 58.7656ZM87.4692 54.5205V62H85.8433V52.4902H87.3813L87.4692 54.5205ZM87.0825 56.8848L86.4058 56.8584C86.4116 56.208 86.5083 55.6074 86.6958 55.0566C86.8833 54.5 87.147 54.0166 87.4868 53.6064C87.8267 53.1963 88.231 52.8799 88.6997 52.6572C89.1743 52.4287 89.6987 52.3145 90.2729 52.3145C90.7417 52.3145 91.1636 52.3789 91.5386 52.5078C91.9136 52.6309 92.2329 52.8301 92.4966 53.1055C92.7661 53.3809 92.9712 53.7383 93.1118 54.1777C93.2524 54.6113 93.3228 55.1416 93.3228 55.7686V62H91.688V55.751C91.688 55.2529 91.6147 54.8545 91.4683 54.5557C91.3218 54.251 91.1079 54.0312 90.8267 53.8965C90.5454 53.7559 90.1997 53.6855 89.7896 53.6855C89.3853 53.6855 89.0161 53.7705 88.6821 53.9404C88.354 54.1104 88.0698 54.3447 87.8296 54.6436C87.5952 54.9424 87.4106 55.2852 87.2759 55.6719C87.147 56.0527 87.0825 56.457 87.0825 56.8848ZM101.4 60.374V55.4785C101.4 55.1035 101.324 54.7783 101.171 54.5029C101.025 54.2217 100.802 54.0049 100.503 53.8525C100.205 53.7002 99.8354 53.624 99.396 53.624C98.9858 53.624 98.6255 53.6943 98.3149 53.835C98.0103 53.9756 97.77 54.1602 97.5942 54.3887C97.4243 54.6172 97.3394 54.8633 97.3394 55.127H95.7134C95.7134 54.7871 95.8013 54.4502 95.9771 54.1162C96.1528 53.7822 96.4048 53.4805 96.7329 53.2109C97.0669 52.9355 97.4653 52.7188 97.9282 52.5605C98.397 52.3965 98.9185 52.3145 99.4927 52.3145C100.184 52.3145 100.793 52.4316 101.321 52.666C101.854 52.9004 102.27 53.2549 102.569 53.7295C102.874 54.1982 103.026 54.7871 103.026 55.4961V59.9258C103.026 60.2422 103.052 60.5791 103.105 60.9365C103.164 61.2939 103.249 61.6016 103.36 61.8594V62H101.664C101.582 61.8125 101.517 61.5635 101.47 61.2529C101.423 60.9365 101.4 60.6436 101.4 60.374ZM101.681 56.2344L101.699 57.377H100.055C99.5923 57.377 99.1792 57.415 98.8159 57.4912C98.4526 57.5615 98.1479 57.6699 97.9019 57.8164C97.6558 57.9629 97.4683 58.1475 97.3394 58.3701C97.2104 58.5869 97.146 58.8418 97.146 59.1348C97.146 59.4336 97.2134 59.7061 97.3481 59.9521C97.4829 60.1982 97.6851 60.3945 97.9546 60.541C98.23 60.6816 98.5669 60.752 98.9653 60.752C99.4634 60.752 99.9028 60.6465 100.284 60.4355C100.665 60.2246 100.966 59.9668 101.189 59.6621C101.417 59.3574 101.541 59.0615 101.558 58.7744L102.252 59.5566C102.211 59.8027 102.1 60.0752 101.918 60.374C101.737 60.6729 101.494 60.96 101.189 61.2354C100.89 61.5049 100.533 61.7305 100.117 61.9121C99.7065 62.0879 99.2437 62.1758 98.728 62.1758C98.0835 62.1758 97.5181 62.0498 97.0317 61.7979C96.5513 61.5459 96.1763 61.209 95.9067 60.7871C95.6431 60.3594 95.5112 59.8818 95.5112 59.3545C95.5112 58.8447 95.6108 58.3965 95.8101 58.0098C96.0093 57.6172 96.2964 57.292 96.6714 57.0342C97.0464 56.7705 97.4976 56.5713 98.0249 56.4365C98.5522 56.3018 99.1411 56.2344 99.7915 56.2344H101.681ZM107.218 48.5V62H105.583V48.5H107.218ZM113.028 52.4902L108.879 56.9287L106.559 59.3369L106.427 57.6055L108.088 55.6191L111.042 52.4902H113.028ZM111.542 62L108.15 57.4648L108.994 56.0146L113.458 62H111.542ZM116.341 48.5V62H114.707V48.5H116.341ZM122.151 52.4902L118.002 56.9287L115.682 59.3369L115.55 57.6055L117.211 55.6191L120.165 52.4902H122.151ZM120.666 62L117.273 57.4648L118.117 56.0146L122.582 62H120.666ZM129.912 54.3799V62H128.277V52.4902H129.824L129.912 54.3799ZM129.578 56.8848L128.822 56.8584C128.828 56.208 128.913 55.6074 129.077 55.0566C129.241 54.5 129.484 54.0166 129.806 53.6064C130.128 53.1963 130.53 52.8799 131.01 52.6572C131.491 52.4287 132.047 52.3145 132.68 52.3145C133.125 52.3145 133.536 52.3789 133.911 52.5078C134.286 52.6309 134.611 52.8271 134.886 53.0967C135.162 53.3662 135.375 53.7119 135.528 54.1338C135.68 54.5557 135.756 55.0654 135.756 55.6631V62H134.13V55.7422C134.13 55.2441 134.045 54.8457 133.875 54.5469C133.711 54.248 133.477 54.0312 133.172 53.8965C132.868 53.7559 132.51 53.6855 132.1 53.6855C131.62 53.6855 131.218 53.7705 130.896 53.9404C130.574 54.1104 130.316 54.3447 130.123 54.6436C129.929 54.9424 129.789 55.2852 129.701 55.6719C129.619 56.0527 129.578 56.457 129.578 56.8848ZM135.739 55.9883L134.649 56.3223C134.655 55.8008 134.74 55.2998 134.904 54.8193C135.074 54.3389 135.317 53.9111 135.633 53.5361C135.956 53.1611 136.351 52.8652 136.82 52.6484C137.289 52.4258 137.825 52.3145 138.428 52.3145C138.938 52.3145 139.389 52.3818 139.782 52.5166C140.18 52.6514 140.514 52.8594 140.784 53.1406C141.059 53.416 141.267 53.7705 141.408 54.2041C141.548 54.6377 141.619 55.1533 141.619 55.751V62H139.984V55.7334C139.984 55.2002 139.899 54.7871 139.729 54.4941C139.565 54.1953 139.331 53.9873 139.026 53.8701C138.727 53.7471 138.37 53.6855 137.954 53.6855C137.596 53.6855 137.28 53.7471 137.004 53.8701C136.729 53.9932 136.498 54.1631 136.31 54.3799C136.123 54.5908 135.979 54.834 135.879 55.1094C135.786 55.3848 135.739 55.6777 135.739 55.9883ZM148.026 62.1758C147.364 62.1758 146.763 62.0645 146.224 61.8418C145.691 61.6133 145.231 61.2939 144.844 60.8838C144.463 60.4736 144.17 59.9873 143.965 59.4248C143.76 58.8623 143.658 58.2471 143.658 57.5791V57.21C143.658 56.4365 143.772 55.748 144 55.1445C144.229 54.5352 144.54 54.0195 144.932 53.5977C145.325 53.1758 145.77 52.8564 146.268 52.6396C146.766 52.4229 147.282 52.3145 147.815 52.3145C148.495 52.3145 149.081 52.4316 149.573 52.666C150.071 52.9004 150.478 53.2285 150.794 53.6504C151.111 54.0664 151.345 54.5586 151.498 55.127C151.65 55.6895 151.726 56.3047 151.726 56.9727V57.7021H144.625V56.375H150.1V56.252C150.077 55.8301 149.989 55.4199 149.836 55.0215C149.69 54.623 149.456 54.2949 149.133 54.0371C148.811 53.7793 148.372 53.6504 147.815 53.6504C147.446 53.6504 147.106 53.7295 146.795 53.8877C146.485 54.04 146.218 54.2686 145.996 54.5732C145.773 54.8779 145.6 55.25 145.477 55.6895C145.354 56.1289 145.292 56.6357 145.292 57.21V57.5791C145.292 58.0303 145.354 58.4551 145.477 58.8535C145.606 59.2461 145.791 59.5918 146.031 59.8906C146.277 60.1895 146.573 60.4238 146.918 60.5938C147.27 60.7637 147.668 60.8486 148.114 60.8486C148.688 60.8486 149.174 60.7314 149.573 60.4971C149.971 60.2627 150.32 59.9492 150.619 59.5566L151.603 60.3389C151.398 60.6494 151.137 60.9453 150.821 61.2266C150.504 61.5078 150.115 61.7363 149.652 61.9121C149.195 62.0879 148.653 62.1758 148.026 62.1758ZM159.619 60.1543V48.5H161.253V62H159.759L159.619 60.1543ZM153.22 57.3506V57.166C153.22 56.4395 153.308 55.7803 153.484 55.1885C153.666 54.5908 153.92 54.0781 154.249 53.6504C154.583 53.2227 154.978 52.8945 155.435 52.666C155.898 52.4316 156.414 52.3145 156.982 52.3145C157.58 52.3145 158.101 52.4199 158.546 52.6309C158.998 52.8359 159.378 53.1377 159.689 53.5361C160.005 53.9287 160.254 54.4033 160.436 54.96C160.618 55.5166 160.744 56.1465 160.814 56.8496V57.6582C160.75 58.3555 160.624 58.9824 160.436 59.5391C160.254 60.0957 160.005 60.5703 159.689 60.9629C159.378 61.3555 158.998 61.6572 158.546 61.8682C158.095 62.0732 157.568 62.1758 156.964 62.1758C156.408 62.1758 155.898 62.0557 155.435 61.8154C154.978 61.5752 154.583 61.2383 154.249 60.8047C153.92 60.3711 153.666 59.8613 153.484 59.2754C153.308 58.6836 153.22 58.042 153.22 57.3506ZM154.855 57.166V57.3506C154.855 57.8252 154.902 58.2705 154.996 58.6865C155.095 59.1025 155.248 59.4688 155.453 59.7852C155.658 60.1016 155.918 60.3506 156.235 60.5322C156.551 60.708 156.929 60.7959 157.369 60.7959C157.908 60.7959 158.35 60.6816 158.696 60.4531C159.047 60.2246 159.329 59.9229 159.54 59.5479C159.75 59.1729 159.915 58.7656 160.032 58.3262V56.208C159.961 55.8857 159.859 55.5752 159.724 55.2764C159.595 54.9717 159.425 54.7021 159.214 54.4678C159.009 54.2275 158.754 54.0371 158.45 53.8965C158.151 53.7559 157.796 53.6855 157.386 53.6855C156.941 53.6855 156.557 53.7793 156.235 53.9668C155.918 54.1484 155.658 54.4004 155.453 54.7227C155.248 55.0391 155.095 55.4082 154.996 55.8301C154.902 56.2461 154.855 56.6914 154.855 57.166ZM172.626 60.0576L176.397 49.2031H178.234L173.497 62H172.187L172.626 60.0576ZM169.102 49.2031L172.837 60.0576L173.303 62H171.994L167.265 49.2031H169.102ZM178.875 57.3506V57.1484C178.875 56.4629 178.975 55.8271 179.174 55.2412C179.374 54.6494 179.661 54.1367 180.036 53.7031C180.411 53.2637 180.865 52.9238 181.398 52.6836C181.931 52.4375 182.529 52.3145 183.191 52.3145C183.859 52.3145 184.459 52.4375 184.993 52.6836C185.532 52.9238 185.989 53.2637 186.364 53.7031C186.745 54.1367 187.035 54.6494 187.234 55.2412C187.433 55.8271 187.533 56.4629 187.533 57.1484V57.3506C187.533 58.0361 187.433 58.6719 187.234 59.2578C187.035 59.8438 186.745 60.3564 186.364 60.7959C185.989 61.2295 185.535 61.5693 185.001 61.8154C184.474 62.0557 183.876 62.1758 183.208 62.1758C182.541 62.1758 181.94 62.0557 181.407 61.8154C180.874 61.5693 180.417 61.2295 180.036 60.7959C179.661 60.3564 179.374 59.8438 179.174 59.2578C178.975 58.6719 178.875 58.0361 178.875 57.3506ZM180.501 57.1484V57.3506C180.501 57.8252 180.557 58.2734 180.668 58.6953C180.78 59.1113 180.947 59.4805 181.169 59.8027C181.398 60.125 181.682 60.3799 182.022 60.5674C182.362 60.749 182.757 60.8398 183.208 60.8398C183.654 60.8398 184.043 60.749 184.377 60.5674C184.717 60.3799 184.999 60.125 185.221 59.8027C185.444 59.4805 185.611 59.1113 185.722 58.6953C185.839 58.2734 185.898 57.8252 185.898 57.3506V57.1484C185.898 56.6797 185.839 56.2373 185.722 55.8213C185.611 55.3994 185.441 55.0273 185.212 54.7051C184.99 54.377 184.708 54.1191 184.369 53.9316C184.035 53.7441 183.642 53.6504 183.191 53.6504C182.746 53.6504 182.353 53.7441 182.013 53.9316C181.679 54.1191 181.398 54.377 181.169 54.7051C180.947 55.0273 180.78 55.3994 180.668 55.8213C180.557 56.2373 180.501 56.6797 180.501 57.1484ZM191.338 48.5V62H189.704V48.5H191.338ZM197.93 52.4902V53.7383H192.789V52.4902H197.93ZM194.529 50.1787H196.155V59.6445C196.155 59.9668 196.205 60.21 196.304 60.374C196.404 60.5381 196.533 60.6465 196.691 60.6992C196.849 60.752 197.019 60.7783 197.201 60.7783C197.335 60.7783 197.476 60.7666 197.623 60.7432C197.775 60.7139 197.889 60.6904 197.965 60.6729L197.974 62C197.845 62.041 197.675 62.0791 197.464 62.1143C197.259 62.1553 197.01 62.1758 196.717 62.1758C196.319 62.1758 195.953 62.0967 195.619 61.9385C195.285 61.7803 195.018 61.5166 194.819 61.1475C194.625 60.7725 194.529 60.2686 194.529 59.6357V50.1787ZM204.645 56.0146H201.402L201.384 54.6523H204.329C204.815 54.6523 205.24 54.5703 205.603 54.4062C205.966 54.2422 206.248 54.0078 206.447 53.7031C206.652 53.3926 206.754 53.0234 206.754 52.5957C206.754 52.127 206.664 51.7461 206.482 51.4531C206.306 51.1543 206.034 50.9375 205.665 50.8027C205.301 50.6621 204.838 50.5918 204.276 50.5918H201.78V62H200.083V49.2031H204.276C204.932 49.2031 205.518 49.2705 206.034 49.4053C206.549 49.5342 206.986 49.7393 207.343 50.0205C207.707 50.2959 207.982 50.6475 208.169 51.0752C208.357 51.5029 208.451 52.0156 208.451 52.6133C208.451 53.1406 208.316 53.6182 208.046 54.0459C207.777 54.4678 207.402 54.8135 206.921 55.083C206.447 55.3525 205.89 55.5254 205.251 55.6016L204.645 56.0146ZM204.566 62H200.734L201.692 60.6201H204.566C205.105 60.6201 205.562 60.5264 205.937 60.3389C206.318 60.1514 206.608 59.8877 206.807 59.5479C207.006 59.2021 207.106 58.7949 207.106 58.3262C207.106 57.8516 207.021 57.4414 206.851 57.0957C206.681 56.75 206.415 56.4834 206.051 56.2959C205.688 56.1084 205.219 56.0146 204.645 56.0146H202.228L202.246 54.6523H205.55L205.911 55.1445C206.526 55.1973 207.047 55.373 207.475 55.6719C207.903 55.9648 208.228 56.3398 208.451 56.7969C208.679 57.2539 208.793 57.7578 208.793 58.3086C208.793 59.1055 208.618 59.7793 208.266 60.3301C207.92 60.875 207.431 61.291 206.798 61.5781C206.166 61.8594 205.421 62 204.566 62ZM210.622 57.3506V57.1484C210.622 56.4629 210.721 55.8271 210.92 55.2412C211.12 54.6494 211.407 54.1367 211.782 53.7031C212.157 53.2637 212.611 52.9238 213.144 52.6836C213.677 52.4375 214.275 52.3145 214.937 52.3145C215.605 52.3145 216.206 52.4375 216.739 52.6836C217.278 52.9238 217.735 53.2637 218.11 53.7031C218.491 54.1367 218.781 54.6494 218.98 55.2412C219.179 55.8271 219.279 56.4629 219.279 57.1484V57.3506C219.279 58.0361 219.179 58.6719 218.98 59.2578C218.781 59.8438 218.491 60.3564 218.11 60.7959C217.735 61.2295 217.281 61.5693 216.748 61.8154C216.22 62.0557 215.623 62.1758 214.955 62.1758C214.287 62.1758 213.686 62.0557 213.153 61.8154C212.62 61.5693 212.163 61.2295 211.782 60.7959C211.407 60.3564 211.12 59.8438 210.92 59.2578C210.721 58.6719 210.622 58.0361 210.622 57.3506ZM212.248 57.1484V57.3506C212.248 57.8252 212.303 58.2734 212.415 58.6953C212.526 59.1113 212.693 59.4805 212.916 59.8027C213.144 60.125 213.428 60.3799 213.768 60.5674C214.108 60.749 214.503 60.8398 214.955 60.8398C215.4 60.8398 215.79 60.749 216.124 60.5674C216.463 60.3799 216.745 60.125 216.967 59.8027C217.19 59.4805 217.357 59.1113 217.468 58.6953C217.585 58.2734 217.644 57.8252 217.644 57.3506V57.1484C217.644 56.6797 217.585 56.2373 217.468 55.8213C217.357 55.3994 217.187 55.0273 216.958 54.7051C216.736 54.377 216.455 54.1191 216.115 53.9316C215.781 53.7441 215.388 53.6504 214.937 53.6504C214.492 53.6504 214.099 53.7441 213.759 53.9316C213.425 54.1191 213.144 54.377 212.916 54.7051C212.693 55.0273 212.526 55.3994 212.415 55.8213C212.303 56.2373 212.248 56.6797 212.248 57.1484ZM225.299 52.4902V53.7383H220.158V52.4902H225.299ZM221.898 50.1787H223.524V59.6445C223.524 59.9668 223.574 60.21 223.673 60.374C223.773 60.5381 223.902 60.6465 224.06 60.6992C224.218 60.752 224.388 60.7783 224.57 60.7783C224.705 60.7783 224.845 60.7666 224.992 60.7432C225.144 60.7139 225.258 60.6904 225.334 60.6729L225.343 62C225.214 62.041 225.044 62.0791 224.833 62.1143C224.628 62.1553 224.379 62.1758 224.086 62.1758C223.688 62.1758 223.322 62.0967 222.988 61.9385C222.654 61.7803 222.387 61.5166 222.188 61.1475C221.995 60.7725 221.898 60.2686 221.898 59.6357V50.1787Z" fill="white"/>
</g>
<defs>
<filter id="filter0_d_226_5" x="0" y="0" width="243.917" height="92" filterUnits="userSpaceOnUse" color-interpolation-filters="sRGB">
<feFlood flood-opacity="0" result="BackgroundImageFix"/>
<feColorMatrix in="SourceAlpha" type="matrix" values="0 0 0 0 0 0 0 0 0 0 0 0 0 0 0 0 0 0 127 0" result="hardAlpha"/>
<feOffset dx="-3" dy="4"/>
<feGaussianBlur stdDeviation="2"/>
<feComposite in2="hardAlpha" operator="out"/>
<feColorMatrix type="matrix" values="0 0 0 0 0 0 0 0 0 0 0 0 0 0 0 0 0 0 0.25 0"/>
<feBlend mode="normal" in2="BackgroundImageFix" result="effect1_dropShadow_226_5"/>
<feBlend mode="normal" in="SourceGraphic" in2="effect1_dropShadow_226_5" result="shape"/>
</filter>
</defs>
</svg>
