<svg width="123" height="92" viewBox="0 0 123 92" fill="none" xmlns="http://www.w3.org/2000/svg">
<g filter="url(#filter0_d_142_832)">
<path d="M7 20C7 8.9543 15.9543 0 27 0H102C113.046 0 122 8.95431 122 20V84H27C15.9543 84 7 75.0457 7 64V20Z" fill="#35CED3"/>
</g>
<path d="M62.256 59H58.152L45.804 40.316V59H41.7V33.944H45.804L58.152 52.592V33.944H62.256V59Z" fill="white"/>
<path fill-rule="evenodd" clip-rule="evenodd" d="M81 34.2295C90.3888 34.2295 98 29.9248 98 24.6148C98 19.3047 90.3888 15 81 15C71.6112 15 64 19.3047 64 24.6148C64 27.8625 66.8471 30.7341 71.2067 32.4748C71.242 32.4889 71.2666 32.5217 71.2699 32.5595L71.7895 38.6657C71.7959 38.74 71.8783 38.7815 71.9418 38.7423L79.2904 34.1995C79.3078 34.1888 79.3281 34.1836 79.3485 34.1847C79.8919 34.2143 80.4428 34.2295 81 34.2295Z" fill="white"/>
<circle cx="75.5" cy="24.5" r="1.5" fill="#004F00"/>
<circle cx="80.5" cy="24.5" r="1.5" fill="#004F00"/>
<circle cx="85.5" cy="24.5" r="1.5" fill="#004F00"/>
<defs>
<filter id="filter0_d_142_832" x="0" y="0" width="123" height="92" filterUnits="userSpaceOnUse" color-interpolation-filters="sRGB">
<feFlood flood-opacity="0" result="BackgroundImageFix"/>
<feColorMatrix in="SourceAlpha" type="matrix" values="0 0 0 0 0 0 0 0 0 0 0 0 0 0 0 0 0 0 127 0" result="hardAlpha"/>
<feOffset dx="-3" dy="4"/>
<feGaussianBlur stdDeviation="2"/>
<feComposite in2="hardAlpha" operator="out"/>
<feColorMatrix type="matrix" values="0 0 0 0 0 0 0 0 0 0 0 0 0 0 0 0 0 0 0.25 0"/>
<feBlend mode="normal" in2="BackgroundImageFix" result="effect1_dropShadow_142_832"/>
<feBlend mode="normal" in="SourceGraphic" in2="effect1_dropShadow_142_832" result="shape"/>
</filter>
</defs>
</svg>
