<svg width="75" height="52" viewBox="0 0 75 52" fill="none" xmlns="http://www.w3.org/2000/svg">
<path fill-rule="evenodd" clip-rule="evenodd" d="M58 19.2295C67.3888 19.2295 75 14.9248 75 9.61475C75 4.30467 67.3888 0 58 0C48.6112 0 41 4.30467 41 9.61475C41 12.8625 43.8471 15.7341 48.2067 17.4748C48.242 17.4889 48.2666 17.5217 48.2699 17.5595L48.7895 23.6657C48.7959 23.74 48.8783 23.7815 48.9418 23.7423L56.2904 19.1995C56.3078 19.1888 56.3281 19.1836 56.3485 19.1847C56.8919 19.2143 57.4428 19.2295 58 19.2295Z" fill="white"/>
<path d="M54 9.5C54 10.3284 53.3284 11 52.5 11C51.6716 11 51 10.3284 51 9.5C51 8.67157 51.6716 8 52.5 8C53.3284 8 54 8.67157 54 9.5Z" fill="#144654" fill-opacity="0.5"/>
<path d="M59 9.5C59 10.3284 58.3284 11 57.5 11C56.6716 11 56 10.3284 56 9.5C56 8.67157 56.6716 8 57.5 8C58.3284 8 59 8.67157 59 9.5Z" fill="#144654"/>
<path d="M64 9.5C64 10.3284 63.3284 11 62.5 11C61.6716 11 61 10.3284 61 9.5C61 8.67157 61.6716 8 62.5 8C63.3284 8 64 8.67157 64 9.5Z" fill="#144654" fill-opacity="0.5"/>
<circle cx="35.5" cy="33.5" r="8.5" fill="white"/>
<circle cx="22.5" cy="46.5" r="5.5" fill="white"/>
<circle cx="3" cy="46" r="3" fill="white"/>
<circle cx="12.5" cy="37.5" r="4.5" fill="white"/>
<path d="M3 45.6667L12.0588 37L22.4118 47L36 33" stroke="white"/>
</svg>
