<svg width="32" height="32" viewBox="0 0 32 32" fill="none" xmlns="http://www.w3.org/2000/svg">
<circle cx="16" cy="16" r="15.5" stroke="#686868"/>
<path d="M16.8203 9.625L16.7188 17.7891H15.4141L15.3047 9.625H16.8203ZM15.2578 20.2734C15.2578 20.0391 15.3281 19.8411 15.4688 19.6797C15.6146 19.5182 15.8281 19.4375 16.1094 19.4375C16.3854 19.4375 16.5964 19.5182 16.7422 19.6797C16.8932 19.8411 16.9688 20.0391 16.9688 20.2734C16.9688 20.4974 16.8932 20.6901 16.7422 20.8516C16.5964 21.013 16.3854 21.0938 16.1094 21.0938C15.8281 21.0938 15.6146 21.013 15.4688 20.8516C15.3281 20.6901 15.2578 20.4974 15.2578 20.2734Z" fill="#686868"/>
</svg>
